<svg xmlns="http://www.w3.org/2000/svg">
  <symbol fill="none" id="icon-close">
    <path fill="#fff"
      d="M22.2 2.8 19.4 0l-8.3 8.3L2.8 0 0 2.8l8.3 8.3L0 19.4l2.8 2.8 8.3-8.3 8.3 8.3 2.8-2.8-8.3-8.3 8.3-8.3Z" />
  </symbol>
  <symbol viewBox="0 0 40 38" fill="none" id="icon-benefit-1">
    <path d="M15.9015 33.8041H24.2549V21.646H15.9015V33.8041ZM22.7408 32.3289H17.4155V23.1212H22.6886V32.3289H22.7408Z"
      fill="#81B3D2" />
    <path
      d="M38.4036 20.6278L39.5 19.5595L34.3313 14.5233V0.7882H27.1265V7.50314L19.9739 0.584717L0.5 19.6104L1.59639 20.6787L5.66867 16.7108V35.9399H3.63253V37.4152H36.994V35.9399H34.3313V16.6599L38.4036 20.6278ZM28.6406 2.31432H32.7651V13.0481L28.6406 9.02927V2.31432ZM32.8173 35.889H7.23494V15.1846L19.9739 2.72129L32.7651 15.1846V35.889H32.8173Z"
      fill="#81B3D2" />
    <path
      d="M16.0582 14.4216C16.0582 16.609 17.8855 18.3895 20.0783 18.3895C22.3233 18.3895 24.1506 16.609 24.1506 14.4216C24.1506 12.2341 22.3233 10.5045 20.0783 10.5045C17.8333 10.5045 16.0582 12.2341 16.0582 14.4216ZM20.0783 11.878C21.4879 11.878 22.6888 12.9972 22.6888 14.4216C22.6888 15.7951 21.5402 16.9651 20.0783 16.9651C18.6687 16.9651 17.4679 15.846 17.4679 14.4216C17.4679 13.0481 18.6687 11.878 20.0783 11.878Z"
      fill="#81B3D2" />
    <path d="M10.8895 21.646H9.32324V23.63H10.8895V21.646Z" fill="#81B3D2" />
    <path d="M13.9698 21.646H12.4036V23.63H13.9698V21.646Z" fill="#81B3D2" />
    <path d="M10.8895 24.6975H9.32324V26.6815H10.8895V24.6975Z" fill="#81B3D2" />
    <path d="M13.9698 24.6975H12.4036V26.6815H13.9698V24.6975Z" fill="#81B3D2" />
    <path d="M27.5443 21.646H25.978V23.63H27.5443V21.646Z" fill="#81B3D2" />
    <path d="M30.6769 21.646H29.1106V23.63H30.6769V21.646Z" fill="#81B3D2" />
    <path d="M27.5443 24.6975H25.978V26.6815H27.5443V24.6975Z" fill="#81B3D2" />
    <path d="M30.6769 24.6975H29.1106V26.6815H30.6769V24.6975Z" fill="#81B3D2" />
  </symbol>
  <symbol viewBox="0 0 40 36" fill="none" id="icon-benefit-2">
    <path
      d="M37.7428 23.8505H2.25722C0.997375 23.8505 0 24.8635 0 26.0285V27.8014C0 28.9664 0.997375 29.9288 2.25722 29.9288H2.78215V30.4354C2.78215 33.2213 5.14436 35.45 7.979 35.45H32.021C34.9081 35.45 37.2178 33.1706 37.2178 30.4354V29.9288H37.7428C38.9501 29.9288 40 28.9664 40 27.7508V25.9779C40 24.8635 39.0026 23.8505 37.7428 23.8505ZM35.6955 30.4354C35.6955 32.3602 34.0682 33.9304 32.0735 33.9304H7.92651C5.93176 33.9304 4.30446 32.3602 4.30446 30.4354V29.9288H35.6955V30.4354ZM38.4252 27.7508C38.4252 28.1053 38.1102 28.4092 37.7428 28.4092H2.25722C1.88976 28.4092 1.5748 28.1053 1.5748 27.7508V25.9779C1.5748 25.674 1.88976 25.3701 2.25722 25.3701H37.7953C38.1627 25.3701 38.4777 25.674 38.4777 26.0285V27.7508H38.4252Z"
      fill="#81B3D2" />
    <path
      d="M8.50395 19.7473L11.3386 21.7735L14.2257 19.7473L17.1129 21.7735L20 19.7473L22.8347 21.7735L25.7218 19.7473L28.6089 21.7735L31.4961 19.7473L34.3832 21.7735L37.6903 19.3928L36.7979 18.1771L34.3832 19.8486L31.4961 17.8225L28.6089 19.8486L25.7218 17.8225L22.8347 19.8486L20 17.8225L17.1129 19.8486L14.2257 17.8225L11.3386 19.8486L8.50395 17.8225L5.61682 19.8486L3.20212 18.1771L2.25723 19.3928L5.61682 21.7735L8.50395 19.7473Z"
      fill="#81B3D2" />
    <path
      d="M37.2179 16.3032C37.2179 15.9993 37.2704 14.9862 37.2179 14.7836C36.8504 6.88169 29.2913 0.550049 20 0.550049C10.7087 0.550049 3.09712 6.88169 2.72967 14.7836C2.72967 14.9862 2.72967 15.9993 2.72967 16.3032H37.2179ZM20 2.06964C28.399 2.06964 35.3281 7.74279 35.6431 14.7836H4.30447C4.67193 7.74279 11.6011 2.06964 20 2.06964Z"
      fill="#81B3D2" />
    <path
      d="M20 9.16113C20.5798 9.16113 21.0499 8.70757 21.0499 8.14807C21.0499 7.58857 20.5798 7.13501 20 7.13501C19.4202 7.13501 18.9501 7.58857 18.9501 8.14807C18.9501 8.70757 19.4202 9.16113 20 9.16113Z"
      fill="#81B3D2" />
    <path
      d="M15.8005 6.67871C16.3803 6.67871 16.8504 6.22515 16.8504 5.66565C16.8504 5.10615 16.3803 4.65259 15.8005 4.65259C15.2207 4.65259 14.7506 5.10615 14.7506 5.66565C14.7506 6.22515 15.2207 6.67871 15.8005 6.67871Z"
      fill="#81B3D2" />
    <path
      d="M24.1995 6.67871C24.7793 6.67871 25.2493 6.22515 25.2493 5.66565C25.2493 5.10615 24.7793 4.65259 24.1995 4.65259C23.6196 4.65259 23.1496 5.10615 23.1496 5.66565C23.1496 6.22515 23.6196 6.67871 24.1995 6.67871Z"
      fill="#81B3D2" />
  </symbol>
  <symbol viewBox="0 0 32 38" fill="none" id="icon-benefit-3">
    <path
      d="M30.5778 11.2058H30.527H18.1841C25.0921 7.76156 25.6508 5.58358 25.3968 4.36796C24.8381 2.39259 22.5524 0.873068 20.419 1.68348C17.6254 2.74714 16.8635 6.9005 16.1016 9.88889C15.1365 6.84985 14.2222 3.0004 12.0381 1.02502C11.4286 0.467863 10.5143 -0.0892942 9.14286 0.0120071C7.11111 0.21461 4.21587 2.69649 5.43492 5.48228C6.55238 8.16676 10.2603 9.88888 12.7492 11.2565H1.42222C0.609524 11.2565 0 11.9149 0 12.6747V18.3475C0 19.158 0.660317 19.7658 1.42222 19.7658H1.5746V38H30.527V19.7658H30.5778C31.3905 19.7658 32 19.1073 32 18.3475V12.6747C32 11.8643 31.3397 11.2058 30.5778 11.2058ZM21.2317 2.94975C22.2984 2.79779 23.7206 3.6082 23.873 4.57057C24.0762 5.93813 22.1968 7.2044 21.3333 7.76156C20.0635 8.62262 18.8444 9.07847 17.6762 9.78758C18.0825 7.91351 18.946 3.25365 21.2317 2.94975ZM9.75238 7.91351C8.63492 7.15375 6.50159 5.68488 6.55238 4.01341C6.60317 2.18999 9.44762 0.721116 10.9714 2.08868C12.9016 3.76016 13.8159 7.66026 14.527 10.3954C12.9016 9.58498 11.3778 8.97717 9.75238 7.91351ZM12.7492 36.4805H3.04762V19.7658H12.7492V36.4805ZM12.7492 18.2462H1.52381V12.7253H12.7492V18.2462ZM17.8286 36.4805H14.2222V12.7253H17.8286V36.4805ZM29.0032 36.4805H19.3524V19.7658H29.054V36.4805H29.0032ZM30.4762 18.2462H19.3524V12.7253H30.4762V18.2462Z"
      fill="#81B3D2" />
  </symbol>
  <symbol fill="none" id="icon-vk">
    <path fill="#fff" fill-rule="evenodd"
      d="M23.45.95c.17-.55 0-.95-.8-.95h-2.62c-.67 0-.98.35-1.14.73 0 0-1.34 3.2-3.23 5.27-.61.6-.89.8-1.22.8-.17 0-.42-.2-.42-.74V.95c0-.66-.18-.95-.74-.95H9.15c-.42 0-.67.3-.67.6 0 .61.95.76 1.05 2.5v3.8c0 .84-.16.99-.5.99-.88 0-3.05-3.21-4.33-6.89-.25-.71-.5-1-1.17-1H.9C.15 0 0 .35 0 .73c0 .68.89 4.07 4.14 8.55C6.32 12.34 9.38 14 12.15 14c1.67 0 1.88-.37 1.88-1v-2.32c0-.73.16-.88.69-.88.38 0 1.05.2 2.61 1.67C19.11 13.22 19.4 14 20.41 14h2.62c.75 0 1.13-.37.91-1.1-.24-.72-1.09-1.77-2.21-3.02-.62-.7-1.54-1.47-1.81-1.86-.4-.49-.28-.7 0-1.14 0 0 3.2-4.43 3.53-5.93Z"
      clip-rule="evenodd" />
  </symbol>
  <symbol fill="none" id="icon-telegram">
    <path fill="#fff"
      d="m21.44 1.62-3.17 14.95c-.24 1.05-.86 1.31-1.75.82l-4.83-3.56-2.33 2.24c-.25.26-.47.47-.97.47l.35-4.91 8.95-8.09c.39-.35-.09-.54-.6-.2L6.01 10.32 1.26 8.82C.22 8.5.21 7.8 1.48 7.3L20.1.11c.87-.32 1.62.2 1.34 1.51Z" />
  </symbol>
  <symbol fill="none" id="icon-youtube">
    <path fill="#fff"
      d="M17.18 0H2.81C1.31 0 0 1.3 0 2.8v8.3C0 12.7 1.3 14 2.81 14h14.37A2.8 2.8 0 0 0 20 11.2V2.8c.1-1.5-1.2-2.8-2.8-2.8ZM7.03 10.4V3.6L13.87 7l-6.84 3.4Z" />
  </symbol>
  <symbol viewBox="0 0 60 60" id="icon-developers">
    <path fill="#000000"
      d="M30.2 5h-.2l-19.7 2.1v36.2l19.7 11.7 19.7-11.7v-36.2l-19.5-2.1zm17 36.8l-17.2 10.2-17.2-10.2v-14.8l17.1 10.2v1.8l-11.7-7v1.8l11.8 7.1v1.9l-11.8-7v1.8l11.8 7 11.9-7.1v-7.6l5.3-3.2v15.1zm-.1-17l-4.7 2.8-2.2 1.3-10.3-6.1v1.8l8.8 5.3h-.1l-.2.1-1.3.7-7.3-4.3v1.8l5.8 3.4-1.4.9-4.3-2.6v1.8l2.9 1.7-2.9 1.7-17-10.1 17-10.2 17.2 10zm.1-1.8l-17.3-10.2-17.1 10.2v-13.6l17.2-1.8 17.2 1.8v13.6z" />
  </symbol>
  <symbol viewBox="0 0 23 21" id="icon-like">
    <path
      d="M12.9636 3.78L12.3364 6.825L11.7091 9.45H14.3227H20.8045V11.55C20.8045 11.55 20.8045 11.55 20.8045 11.655L17.7727 18.9H8.36364V8.4L12.9636 3.78ZM2.09091 10.5V18.9V10.5ZM13.8 0L6.9 6.93C6.48182 7.245 6.27273 7.77 6.27273 8.4V18.9C6.27273 20.055 7.21364 21 8.36364 21H17.7727C18.6091 21 19.3409 20.475 19.6545 19.74L22.7909 12.285C22.8955 12.075 22.8955 11.76 22.8955 11.55V9.45H23C23 8.295 22.0591 7.35 20.9091 7.35H14.3227L15.3682 2.52V2.205C15.3682 1.785 15.1591 1.365 14.95 1.05L13.8 0ZM4.18182 8.4H0V21H4.18182V8.4Z" />
  </symbol>
  <symbol fill="none" id="icon-phone">
    <path fill="#010101"
      d="M3.6 7.8c1.4 2.8 3.8 5.1 6.6 6.6l2.2-2.2c.3-.3.7-.4 1-.2 1.1.4 2.3.6 3.6.6.6 0 1 .4 1 1V17c0 .6-.4 1-1 1C7.6 18 0 10.4 0 1c0-.6.4-1 1-1h3.5c.6 0 1 .4 1 1 0 1.2.2 2.4.6 3.6.1.3 0 .7-.2 1L3.6 7.8Z" />
  </symbol>
  <symbol fill="none" id="icon-email">
    <path fill="#000"
      d="M8 8c-.3 0-.5-.1-1-.3L0 4v7c0 .5.5 1 1 1h14c.5 0 1-.5 1-1V4L9 7.7c-.5.2-.7.3-1 .3Zm7-8H1C.5 0 0 .5 0 1v.8L8 6l8-4.2V1c0-.5-.5-1-1-1Z" />
  </symbol>
</svg>
